<?xml version="1.0" encoding="UTF-8"?>
<svg xmlns="http://www.w3.org/2000/svg" xmlns:xlink="http://www.w3.org/1999/xlink" width="px" height="px" viewBox="0 0 250 250" version="1.1">
<g id="surface1">
<path style=" stroke:none;fill-rule:nonzero;fill:rgb(30.196078%,67.058824%,81.176471%);fill-opacity:1;" d="M 110.464844 63.570312 L 75.886719 46.113281 L 37.933594 65.054688 L 73.449219 82.890625 Z M 110.464844 63.570312 "/>
<path style=" stroke:none;fill-rule:nonzero;fill:rgb(30.196078%,67.058824%,81.176471%);fill-opacity:1;" d="M 126.316406 71.570312 L 162.570312 89.871094 L 124.953125 108.761719 L 89.386719 90.894531 Z M 126.316406 71.570312 "/>
<path style=" stroke:none;fill-rule:nonzero;fill:rgb(30.196078%,67.058824%,81.176471%);fill-opacity:1;" d="M 174.734375 46.378906 L 211.980469 65.054688 L 178.671875 81.785156 L 142.339844 63.460938 Z M 174.734375 46.378906 "/>
<path style=" stroke:none;fill-rule:nonzero;fill:rgb(30.196078%,67.058824%,81.176471%);fill-opacity:1;" d="M 158.703125 38.335938 L 125.175781 21.523438 L 92.003906 38.074219 L 126.554688 55.5 Z M 158.703125 38.335938 "/>
<path style=" stroke:none;fill-rule:nonzero;fill:rgb(30.196078%,67.058824%,81.176471%);fill-opacity:1;" d="M 132.488281 182.71875 L 132.488281 228.476562 L 173.109375 208.203125 L 173.066406 162.429688 Z M 132.488281 182.71875 "/>
<path style=" stroke:none;fill-rule:nonzero;fill:rgb(30.196078%,67.058824%,81.176471%);fill-opacity:1;" d="M 173.050781 146.453125 L 173.003906 101.160156 L 132.488281 121.300781 L 132.488281 166.609375 Z M 173.050781 146.453125 "/>
<path style=" stroke:none;fill-rule:nonzero;fill:rgb(30.196078%,67.058824%,81.176471%);fill-opacity:1;" d="M 221.816406 137.964844 L 221.816406 183.898438 L 187.171875 201.191406 L 187.144531 155.464844 Z M 221.816406 137.964844 "/>
<path style=" stroke:none;fill-rule:nonzero;fill:rgb(30.196078%,67.058824%,81.176471%);fill-opacity:1;" d="M 221.816406 121.90625 L 221.816406 76.894531 L 187.105469 94.148438 L 187.136719 139.535156 Z M 221.816406 121.90625 "/>
<path style=" stroke:none;fill-rule:nonzero;fill:rgb(30.196078%,46.666667%,81.176471%);fill-opacity:1;" d="M 118.148438 121.300781 L 90.789062 107.546875 L 90.789062 167 C 90.789062 167 57.328125 95.804688 54.230469 89.410156 C 53.828125 88.585938 52.183594 87.679688 51.765625 87.460938 C 45.765625 84.308594 28.183594 75.40625 28.183594 75.40625 L 28.183594 180.445312 L 52.503906 193.445312 L 52.503906 138.539062 C 52.503906 138.539062 85.609375 202.15625 85.945312 202.851562 C 86.28125 203.546875 89.605469 210.25 93.15625 212.605469 C 97.886719 215.734375 118.15625 227.925781 118.15625 227.925781 Z M 118.148438 121.300781 "/>
</g>
</svg>
