<?xml version="1.0" encoding="UTF-8"?>
<svg xmlns="http://www.w3.org/2000/svg" xmlns:xlink="http://www.w3.org/1999/xlink" width="px" height="px" viewBox="0 0 410 166" version="1.1">
<g id="surface1">
<path style=" stroke:none;fill-rule:nonzero;fill:rgb(100%,100%,100%);fill-opacity:1;" d="M 145.734375 99.84375 C 140.59375 99.84375 135.363281 97.710938 132.085938 93.539062 L 132.085938 116.089844 L 121.792969 116.089844 L 121.792969 60.414062 L 131.097656 60.414062 L 131.453125 66.539062 C 134.644531 61.832031 140.316406 59.347656 145.722656 59.347656 C 156.09375 59.347656 163.734375 68.050781 163.734375 79.59375 C 163.734375 91.136719 156.105469 99.847656 145.734375 99.84375 Z M 142.546875 66.988281 C 136.515625 66.988281 131.644531 71.695312 131.644531 79.597656 C 131.644531 87.503906 136.515625 92.21875 142.546875 92.21875 C 148.574219 92.21875 153.449219 87.511719 153.449219 79.609375 C 153.449219 71.707031 148.574219 66.988281 142.546875 66.988281 Z M 142.546875 66.988281 "/>
<path style=" stroke:none;fill-rule:nonzero;fill:rgb(100%,100%,100%);fill-opacity:1;" d="M 202.519531 98.785156 L 202.164062 92.660156 C 198.972656 97.367188 193.300781 99.851562 187.890625 99.847656 C 177.519531 99.847656 169.882812 91.148438 169.882812 79.605469 C 169.882812 68.0625 177.507812 59.355469 187.890625 59.359375 C 193.300781 59.359375 198.972656 61.867188 202.164062 66.554688 L 202.519531 60.429688 L 211.847656 60.429688 L 211.847656 98.785156 Z M 191.089844 66.996094 C 185.0625 66.996094 180.1875 71.699219 180.183594 79.605469 C 180.179688 87.507812 185.054688 92.21875 191.085938 92.21875 C 197.113281 92.21875 201.992188 87.511719 201.992188 79.609375 C 201.992188 71.707031 197.117188 66.996094 191.089844 66.996094 Z M 191.089844 66.996094 "/>
<path style=" stroke:none;fill-rule:nonzero;fill:rgb(100%,100%,100%);fill-opacity:1;" d="M 247.800781 98.789062 L 247.800781 77.570312 C 247.800781 70.113281 245.234375 67.625 240.539062 67.625 C 235.660156 67.625 230.34375 72.0625 230.34375 77.390625 L 230.34375 98.789062 L 220.054688 98.789062 L 220.054688 60.429688 L 229.457031 60.429688 L 229.902344 67.535156 C 232.472656 62.648438 238.230469 59.367188 244.085938 59.367188 C 254.277344 59.367188 258.09375 66.472656 258.09375 75.972656 L 258.09375 98.796875 Z M 247.800781 98.789062 "/>
<path style=" stroke:none;fill-rule:nonzero;fill:rgb(100%,100%,100%);fill-opacity:1;" d="M 295.78125 98.800781 L 295.425781 92.671875 C 292.234375 97.375 286.558594 99.863281 281.15625 99.863281 C 270.785156 99.863281 263.148438 91.15625 263.148438 79.613281 C 263.148438 68.070312 270.769531 59.371094 281.15625 59.371094 C 286.296875 59.371094 291.523438 61.507812 294.804688 65.675781 L 294.804688 45.523438 L 305.089844 45.523438 L 305.089844 98.800781 Z M 284.347656 67.007812 C 278.34375 67.007812 273.449219 71.714844 273.449219 79.613281 C 273.449219 87.511719 278.320312 92.21875 284.347656 92.21875 C 290.378906 92.21875 295.25 87.519531 295.25 79.613281 C 295.25 71.710938 290.390625 67.007812 284.347656 67.007812 Z M 284.347656 67.007812 "/>
<path style=" stroke:none;fill-rule:nonzero;fill:rgb(100%,100%,100%);fill-opacity:1;" d="M 343.722656 98.804688 L 343.367188 92.679688 C 340.175781 97.386719 334.503906 99.867188 329.09375 99.867188 C 318.722656 99.867188 311.085938 91.167969 311.085938 79.621094 C 311.085938 68.070312 318.710938 59.375 329.09375 59.375 C 334.503906 59.375 340.175781 61.882812 343.367188 66.574219 L 343.722656 60.445312 L 353.027344 60.445312 L 353.027344 98.800781 Z M 332.292969 67.015625 C 326.289062 67.015625 321.390625 71.71875 321.386719 79.625 C 321.378906 87.527344 326.261719 92.21875 332.285156 92.21875 C 338.3125 92.21875 343.195312 87.511719 343.195312 79.609375 C 343.195312 71.707031 338.320312 67.015625 332.292969 67.015625 Z M 332.292969 67.015625 "/>
<path style=" stroke:none;fill-rule:nonzero;fill:rgb(100%,100%,100%);fill-opacity:1;" d="M 375.808594 100.054688 C 370.398438 100.007812 365.101562 98.503906 360.472656 95.699219 L 362.160156 88.597656 C 365.261719 90.460938 369.960938 92.859375 375.632812 92.859375 C 379.710938 92.859375 382.546875 91.617188 382.546875 88.421875 C 382.546875 85.667969 379.621094 84.691406 374.390625 83.449219 C 364.996094 81.402344 361.628906 76.433594 361.628906 71.015625 C 361.628906 64.972656 366.328125 59.296875 376.699219 59.296875 C 382.992188 59.296875 388.488281 62.046875 389.707031 62.757812 L 388.019531 69.511719 C 384.671875 67.492188 380.851562 66.386719 376.941406 66.3125 C 372.78125 66.3125 370.738281 67.730469 370.738281 70.042969 C 370.738281 72.613281 373.402344 73.769531 377.472656 74.746094 C 387.578125 76.878906 391.65625 81.585938 391.65625 86.738281 C 391.675781 94.992188 385.648438 100.054688 375.808594 100.054688 Z M 375.808594 100.054688 "/>
<path style=" stroke:none;fill-rule:nonzero;fill:rgb(100%,100%,100%);fill-opacity:1;" d="M 37.683594 34.292969 L 49.738281 34.292969 L 49.738281 59.359375 L 37.683594 59.359375 Z M 37.683594 34.292969 "/>
<path style=" stroke:none;fill-rule:nonzero;fill:rgb(100%,100%,100%);fill-opacity:1;" d="M 37.683594 85.789062 L 49.738281 85.789062 L 49.738281 110.859375 L 37.683594 110.859375 Z M 37.683594 85.789062 "/>
<path style=" stroke:none;fill-rule:nonzero;fill:rgb(100%,79.215686%,0%);fill-opacity:1;" d="M 37.683594 66.679688 L 49.738281 66.679688 L 49.738281 78.507812 L 37.683594 78.507812 Z M 37.683594 66.679688 "/>
<path style=" stroke:none;fill-rule:nonzero;fill:rgb(100%,100%,100%);fill-opacity:1;" d="M 18.328125 54.90625 L 30.378906 54.90625 L 30.378906 138.238281 L 18.328125 138.238281 Z M 18.328125 54.90625 "/>
<path style=" stroke:none;fill-rule:nonzero;fill:rgb(100%,100%,100%);fill-opacity:1;" d="M 56.644531 106.472656 L 68.699219 106.472656 L 68.699219 131.542969 L 56.644531 131.542969 Z M 56.644531 106.472656 "/>
<path style=" stroke:none;fill-rule:nonzero;fill:rgb(100%,100%,100%);fill-opacity:1;" d="M 56.644531 54.9375 L 68.699219 54.9375 L 68.699219 80.003906 L 56.644531 80.003906 Z M 56.644531 54.9375 "/>
<path style=" stroke:none;fill-rule:nonzero;fill:rgb(90.588235%,1.568627%,53.333333%);fill-opacity:1;" d="M 56.644531 87.324219 L 68.699219 87.324219 L 68.699219 99.152344 L 56.644531 99.152344 Z M 56.644531 87.324219 "/>
<path style=" stroke:none;fill-rule:nonzero;fill:rgb(100%,100%,100%);fill-opacity:1;" d="M 75.601562 27.761719 L 87.652344 27.761719 L 87.652344 111.09375 L 75.601562 111.09375 Z M 75.601562 27.761719 "/>
</g>
</svg>
