<?xml version="1.0" encoding="UTF-8"?>
<svg xmlns="http://www.w3.org/2000/svg" xmlns:xlink="http://www.w3.org/1999/xlink" width="px" height="px" viewBox="0 0 50 25" version="1.1">
<g id="surface1">
<path style=" stroke:none;fill-rule:nonzero;fill:rgb(100%,100%,100%);fill-opacity:1;" d="M 3.789062 5.5625 L 10.890625 5.5625 C 12.976562 5.578125 14.488281 6.179688 15.421875 7.363281 C 16.359375 8.546875 16.667969 10.164062 16.351562 12.214844 C 16.226562 13.148438 15.953125 14.066406 15.527344 14.96875 C 15.121094 15.871094 14.558594 16.683594 13.832031 17.40625 C 12.949219 18.324219 12.003906 18.910156 10.996094 19.15625 C 9.992188 19.402344 8.949219 19.527344 7.871094 19.527344 L 4.691406 19.527344 L 3.683594 24.5625 L 0 24.5625 L 3.789062 5.5625 M 6.890625 8.582031 L 5.300781 16.53125 C 5.40625 16.550781 5.511719 16.558594 5.617188 16.558594 C 5.742188 16.558594 5.867188 16.558594 5.988281 16.558594 C 7.683594 16.578125 9.097656 16.410156 10.230469 16.054688 C 11.359375 15.683594 12.121094 14.394531 12.507812 12.1875 C 12.824219 10.332031 12.507812 9.261719 11.554688 8.980469 C 10.617188 8.699219 9.441406 8.566406 8.03125 8.582031 C 7.816406 8.601562 7.613281 8.609375 7.421875 8.609375 C 7.242188 8.609375 7.058594 8.609375 6.863281 8.609375 L 6.890625 8.582031 "/>
<path style=" stroke:none;fill-rule:nonzero;fill:rgb(100%,100%,100%);fill-opacity:1;" d="M 20.546875 0.5 L 24.203125 0.5 L 23.171875 5.5625 L 26.457031 5.5625 C 28.257812 5.597656 29.601562 5.96875 30.484375 6.675781 C 31.386719 7.382812 31.648438 8.722656 31.277344 10.703125 L 29.503906 19.527344 L 25.792969 19.527344 L 27.488281 11.101562 C 27.664062 10.214844 27.613281 9.589844 27.332031 9.21875 C 27.046875 8.847656 26.4375 8.660156 25.503906 8.660156 L 22.558594 8.636719 L 20.386719 19.527344 L 16.730469 19.527344 L 20.546875 0.5 "/>
<path style=" stroke:none;fill-rule:nonzero;fill:rgb(100%,100%,100%);fill-opacity:1;" d="M 35.207031 5.5625 L 42.308594 5.5625 C 44.390625 5.578125 45.902344 6.179688 46.839844 7.363281 C 47.777344 8.546875 48.085938 10.164062 47.765625 12.214844 C 47.644531 13.148438 47.371094 14.066406 46.945312 14.96875 C 46.539062 15.871094 45.972656 16.683594 45.25 17.40625 C 44.367188 18.324219 43.421875 18.910156 42.414062 19.15625 C 41.40625 19.402344 40.363281 19.527344 39.285156 19.527344 L 36.105469 19.527344 L 35.101562 24.5625 L 31.417969 24.5625 L 35.207031 5.5625 M 38.304688 8.582031 L 36.714844 16.53125 C 36.824219 16.550781 36.929688 16.558594 37.035156 16.558594 C 37.15625 16.558594 37.28125 16.558594 37.40625 16.558594 C 39.101562 16.578125 40.515625 16.410156 41.644531 16.054688 C 42.777344 15.683594 43.535156 14.394531 43.925781 12.1875 C 44.242188 10.332031 43.925781 9.261719 42.96875 8.980469 C 42.035156 8.699219 40.859375 8.566406 39.445312 8.582031 C 39.234375 8.601562 39.03125 8.609375 38.835938 8.609375 C 38.660156 8.609375 38.472656 8.609375 38.28125 8.609375 L 38.304688 8.582031 "/>
</g>
</svg>
